<svg xmlns="http://www.w3.org/2000/svg" viewBox="0 0 20 20" fill="#55534E"><path d="m8.272 5.622-1.35-1.35c.94-.74 2.197-1.147 3.7-1.147 3.472 0 5.625 2.153 5.625 5.625v.1c1.562.338 2.5 1.55 2.5 3.338 0 1.2-.422 2.143-1.175 2.737l-1.356-1.356c.443-.228.656-.675.656-1.382 0-1.08-.481-1.562-1.563-1.562h-.937V8.75c0-2.419-1.331-3.75-3.75-3.75-.963 0-1.75.216-2.353.622zM1.875 2.759l15.366 15.366.884-.884L2.759 1.875zM5.313 13.75c-1.472 0-2.188-.716-2.188-2.187 0-1.472.716-2.188 2.188-2.188h1.409L4.866 7.519c-2.244.175-3.616 1.69-3.616 4.044 0 2.506 1.556 4.062 4.063 4.062h7.659l-1.875-1.875z" fill="#55534E"></path></svg>